<svg width="393" height="94" viewBox="0 0 393 94" fill="none" xmlns="http://www.w3.org/2000/svg">
<path d="M0.727273 94V24.1818H19.1818V36.5H20C21.4545 32.4091 23.8788 29.1818 27.2727 26.8182C30.6667 24.4545 34.7273 23.2727 39.4545 23.2727C44.2424 23.2727 48.3182 24.4697 51.6818 26.8636C55.0455 29.2273 57.2879 32.4394 58.4091 36.5H59.1364C60.5606 32.5 63.1364 29.303 66.8636 26.9091C70.6212 24.4848 75.0606 23.2727 80.1818 23.2727C86.697 23.2727 91.9849 25.3485 96.0455 29.5C100.136 33.6212 102.182 39.4697 102.182 47.0455V94H82.8636V50.8636C82.8636 46.9848 81.8333 44.0758 79.7727 42.1364C77.7121 40.197 75.1364 39.2273 72.0455 39.2273C68.5303 39.2273 65.7879 40.3485 63.8182 42.5909C61.8485 44.803 60.8636 47.7273 60.8636 51.3636V94H42.0909V50.4545C42.0909 47.0303 41.1061 44.303 39.1364 42.2727C37.197 40.2424 34.6364 39.2273 31.4545 39.2273C29.303 39.2273 27.3636 39.7727 25.6364 40.8636C23.9394 41.9242 22.5909 43.4242 21.5909 45.3636C20.5909 47.2727 20.0909 49.5152 20.0909 52.0909V94H0.727273ZM116.841 94V82.3182L163.295 17.1364H116.75V0.909088H188.023V12.5909L141.523 77.7727H188.114V94H116.841ZM219.261 94H198.17L230.307 0.909088H255.67L287.761 94H266.67L243.352 22.1818H242.625L219.261 94ZM217.943 57.4091H267.761V72.7727H217.943V57.4091ZM284.045 17.1364V0.909088H360.5V17.1364H332V94H312.545V17.1364H284.045ZM392.773 0.909088V94H373.091V0.909088H392.773Z" fill="#F3C211"/>
</svg>
